<?xml version="1.0" standalone="no"?>
<!DOCTYPE svg PUBLIC "-//W3C//DTD SVG 20010904//EN"
 "http://www.w3.org/TR/2001/REC-SVG-20010904/DTD/svg10.dtd">
<svg version="1.0" xmlns="http://www.w3.org/2000/svg"
 width="1920.000000pt" height="1920.000000pt" viewBox="0 0 1920.000000 1920.000000"
 preserveAspectRatio="xMidYMid meet">
<metadata>
Created by potrace 1.14, written by Peter Selinger 2001-2017
</metadata>
<g transform="translate(0.000000,1920.000000) scale(0.100000,-0.100000)"
fill="#000000" stroke="none">
<path d="M9060 19189 c-320 -18 -756 -67 -1088 -124 -1481 -255 -2847 -835
-4061 -1725 -735 -539 -1428 -1224 -1976 -1950 -590 -783 -1055 -1645 -1381
-2560 -519 -1454 -676 -3007 -463 -4570 202 -1484 775 -2938 1648 -4180 1136
-1618 2741 -2844 4596 -3513 348 -125 571 -194 905 -277 792 -198 1538 -290
2360 -290 822 0 1568 92 2360 290 864 216 1707 561 2490 1018 1700 993 3078
2518 3891 4307 571 1258 859 2592 859 3980 0 1481 -322 2890 -960 4202 -1129
2323 -3149 4097 -5594 4914 -794 266 -1682 433 -2541 479 -220 12 -819 11
-1045 -1z m-2613 -2661 c77 -28 152 -100 189 -181 l29 -62 0 -865 0 -865 -27
-57 c-35 -75 -98 -142 -166 -175 -78 -38 -194 -44 -274 -13 -80 30 -157 102
-194 182 l-29 63 0 870 0 870 22 48 c41 87 136 171 223 198 53 16 168 10 227
-13z m6571 -12 c68 -35 128 -97 161 -166 l26 -55 0 -875 0 -875 -27 -56 c-36
-72 -98 -135 -168 -168 -47 -22 -68 -26 -150 -26 -81 0 -103 4 -145 25 -73 35
-147 114 -176 185 l-24 60 0 860 0 860 33 67 c39 80 110 148 185 178 77 30
212 24 285 -14z m1812 -7400 c0 -2834 -2 -3229 -15 -3333 -54 -413 -228 -755
-533 -1044 -285 -271 -639 -431 -1037 -469 -153 -14 -7137 -14 -7290 0 -415
40 -796 219 -1078 509 -49 49 -86 95 -82 101 4 6 1 9 -6 8 -17 -4 -132 149
-194 259 -63 111 -138 297 -170 422 -58 230 -55 42 -55 3547 l0 3214 5230 0
5230 0 0 -3214z"/>
<path d="M4421 6204 c0 -11 3 -14 6 -6 3 7 2 16 -1 19 -3 4 -6 -2 -5 -13z"/>
<path d="M14474 5618 l-19 -23 23 19 c21 18 27 26 19 26 -2 0 -12 -10 -23 -22z"/>
<path d="M4760 5566 c0 -2 8 -10 18 -17 15 -13 16 -12 3 4 -13 16 -21 21 -21
13z"/>
<path d="M4850 5466 c0 -2 8 -10 18 -17 15 -13 16 -12 3 4 -13 16 -21 21 -21
13z"/>
</g>
</svg>
